<svg width="975" height="174" viewBox="0 0 975 174" fill="none" xmlns="http://www.w3.org/2000/svg">
<g clip-path="url(#clip0)">
<path d="M1.52539 163.344C17.46 152.768 38.0836 155.188 57.175 156.31C64.0998 156.72 71.0246 157.13 77.941 157.532C81.6086 157.75 85.7115 158.018 88.7176 160.404C91.3468 162.498 92.7871 166.35 90.0573 169.582C89.0609 170.762 87.6793 171.591 86.1637 171.884C81.776 172.73 77.7987 169.448 76.4338 165.454C75.2699 162.062 75.7388 158.278 76.9781 154.912C78.2174 151.545 80.1851 148.506 82.0859 145.458C83.9866 142.41 85.8455 139.287 86.8503 135.845C88.5752 129.892 87.135 124.056 83.9196 118.898C82.3371 116.352 80.4279 114.024 78.4769 111.763C76.6934 109.687 73.8967 107.451 72.7495 104.998C81.9016 100.593 94.5371 106.865 102.467 111.37C109.216 115.205 115.655 119.567 122.077 123.922C123.71 125.027 125.485 126.316 125.628 128.418C125.736 130.001 124.757 131.516 123.275 132.077C120.386 133.166 117.681 130.537 115.914 128.108C106.226 114.803 99.536 98.7093 95.1567 82.9171C110.581 83.6456 134.026 99.555 136.295 110.817C136.061 112.082 136.513 114.493 133.339 113.547C132.527 113.304 131.891 112.668 131.598 111.872C126.49 97.9138 121.382 83.9554 116.266 69.9885C129.998 77.2064 144.3 84.9686 152.808 97.9473C145.74 101.221 145.866 93.8527 145.138 89.6409C143.898 82.49 143.664 75.1633 144.451 67.9454C147.423 69.4024 150.773 70.2732 154.122 71.9144C171.095 80.246 195.051 97.2272 196.132 116.067C196.215 117.516 195.805 118.99 194.859 120.087C192.648 122.657 189.667 121.225 188.512 119.048C186.778 115.783 188.713 111.546 191.769 109.469C195.931 106.639 201.181 106.019 206.079 105.961C208.524 105.927 218.715 106.614 220.791 106.748C221.001 106.765 221.168 106.915 221.202 107.116C221.897 111.663 220.833 119.182 220.038 122.113C218.606 127.371 216.094 132.245 212.677 136.49C210.609 135.502 210.592 132.303 212.1 130.587C213.615 128.87 216.01 128.276 218.262 127.865C225.589 126.534 233.092 126.157 240.519 126.76C238.635 133.317 236.006 139.655 232.69 145.625C231.76 147.292 230.689 149.025 228.779 149.62C227.733 149.946 226.552 149.762 225.782 148.992C224.208 147.417 225.514 145.064 227.306 144.361C228.83 143.758 230.546 144.018 232.162 144.286C237.814 145.215 243.466 146.153 249.11 147.082C252.451 147.635 255.842 145.944 257.19 142.845C259.485 137.562 257.517 132.245 252.593 128.745C251.002 127.614 250.441 125.32 251.555 123.721C254.327 119.735 260.18 127.288 263.663 122.657C264.391 121.694 264.693 120.472 264.643 119.258L263.889 100.66C271.944 101.858 280.435 96.147 282.352 88.2425" stroke="#010101" stroke-width="3.5" stroke-miterlimit="10" stroke-linecap="round" stroke-linejoin="round"/>
<path d="M282.646 89.0966C282.671 83.3943 282.687 77.6837 282.712 71.9814C283.634 71.7972 284.563 71.6213 285.484 71.4371C285.568 65.6511 285.652 59.8651 285.744 54.0707C290.424 53.92 295.105 53.7692 299.786 53.6185C301.728 53.5599 304.282 52.9403 304.374 50.9976C304.45 49.4402 302.733 48.4019 301.193 48.1926C299.652 47.9748 298.002 48.1926 296.612 47.4892C294.084 46.2164 293.782 42.7833 293.832 39.9531C293.924 34.1504 294.008 19.1369 294.1 13.3341C294.167 9.18927 294.402 4.60065 297.307 1.64484C299.233 3.83029 299.275 7.04568 299.216 9.95962C299.007 20.4012 298.806 40.0452 298.597 50.4869C298.555 52.8063 298.538 55.2597 299.736 57.2442C300.933 59.2287 303.805 60.3842 305.639 58.9775C305.53 65.7097 306.049 72.4419 307.188 79.0736C307.381 80.2041 307.615 81.3763 308.318 82.289C309.189 83.4111 310.604 83.9218 311.869 84.575C318.299 87.8908 321.339 96.5573 318.392 103.164C316.566 94.2127 315.88 85.0355 316.357 75.9085C320.083 76.1346 323.801 76.3523 327.527 76.5784C327.77 87.581 328.297 99.421 335.038 108.121C331.68 81.0833 336.687 50.7046 333.33 23.6669C333.187 22.5365 333.062 21.3223 333.614 20.3343C334.418 18.8857 336.302 18.4921 337.943 18.2828C344.391 17.4371 344.182 18.5507 350.679 18.2744C351.902 18.2242 353.25 18.2242 354.179 19.0196" stroke="#010101" stroke-width="3.5" stroke-miterlimit="10" stroke-linecap="round" stroke-linejoin="round"/>
<path d="M354.9 19.4216C358.366 39.794 357.546 67.2169 358.391 87.8657C358.693 95.1757 358.994 102.477 359.296 109.787C359.43 112.986 358.76 117.214 355.595 117.675C353.468 117.985 351.533 116.067 351.031 113.982C350.529 111.897 351.073 109.712 351.617 107.635C351.894 106.589 352.254 105.425 353.2 104.897C354.556 104.135 356.197 105.107 357.747 105.249C360.552 105.517 362.938 102.871 363.491 100.108C364.403 95.5023 364.797 90.5117 364.537 85.8812C364.127 78.4205 364.186 70.8091 363.792 63.3149C363.449 56.8674 368.113 57.3028 372.944 57.06C375.213 56.9511 377.466 57.3531 379.693 57.7634C385.195 58.7598 388.05 59.0696 387.748 64.9394C387.472 70.3151 385.253 79.9361 389.457 84.2149C393.124 87.9495 399.714 85.697 403.273 81.862C406.831 78.0186 408.958 72.9025 413.044 69.6285C414.887 74.7195 416.737 79.8189 418.579 84.9099C418.998 86.0654 419.433 87.2545 420.237 88.1839C422.515 90.8215 426.626 90.4531 430.051 89.8586C427.095 105.5 428.209 121.895 433.266 136.984C433.626 138.056 434.003 139.237 433.593 140.292C432.672 142.619 428.937 141.95 427.438 139.94C425.37 137.168 425.822 132.839 428.418 130.553C429.808 129.331 431.608 128.711 433.358 128.125C437.88 126.601 442.402 125.077 446.932 123.562C447.911 123.227 448.95 122.867 449.628 122.088C450.222 121.401 450.465 120.48 450.658 119.584C454.727 101.255 448.891 82.1886 449.938 63.4405C450.021 61.9752 450.214 60.3759 451.294 59.3878C452.399 58.383 454.057 58.3579 455.548 58.3914C465.01 58.6091 472.789 58.8352 482.251 59.0529C482.359 81.1419 482.393 103.097 487.375 124.474C487.827 126.417 488.757 128.745 490.741 128.904C492.215 129.021 493.496 127.706 493.873 126.274C494.25 124.843 493.948 123.327 493.655 121.878C492.809 117.675 494.451 74.0999 495.816 71.4036" stroke="#010101" stroke-width="3.5" stroke-miterlimit="10" stroke-linecap="round" stroke-linejoin="round"/>
<path d="M973.535 139.119C963.721 146.689 951.446 151.001 939.053 151.236C937.236 151.269 935.31 151.185 933.794 150.197C932.513 149.36 931.684 147.995 931.031 146.613C926.761 137.637 926.577 121.183 933.016 113.614C937.303 116.67 939.622 127.706 939.748 132.965C939.882 138.248 939.463 144.403 935.134 147.434C931.333 150.105 926.074 149.117 921.804 147.275C911.103 142.653 903.031 133.66 893.669 126.718C867.854 107.568 832.175 106.739 801.771 113.304C793.766 115.037 786.155 117.742 779.004 121.786C771.752 125.881 765.045 130.838 758.154 135.502C751.095 140.275 743.685 144.495 736.35 148.816C733.126 150.716 731.049 143.792 730.832 141.506C729.885 131.834 739.155 125.06 747.905 124.156C754.872 123.436 761.813 125.32 768.679 126.718C796.186 132.32 824.589 130.252 852.648 129.373C877.056 128.611 901.507 128.77 925.882 127.162C895.536 110.608 860.82 100.434 826.422 103.884C794.302 107.108 764.518 121.837 736.626 138.098C735.018 139.036 732.364 139.63 731.795 137.855C731.694 137.528 731.694 137.185 731.702 136.85C731.795 131.525 731.878 126.199 731.97 120.874C732.012 118.462 731.275 113.145 733.419 111.445C734.005 110.985 734.851 110.867 735.537 111.161C736.643 111.629 737.128 112.919 737.463 114.074C740.026 122.816 741.164 131.943 740.628 141.045C740.536 142.552 740.377 144.127 739.54 145.374C738.259 147.267 735.621 147.903 733.411 147.325C731.2 146.739 729.375 145.165 727.934 143.39C724.066 138.65 722.534 132.529 722.031 126.542C721.822 124.047 722.441 120.966 720.708 118.923C719.025 116.938 716.044 116.453 713.591 116.536C710.543 116.637 702.948 117.315 700.068 116.327" stroke="#010101" stroke-width="3.5" stroke-miterlimit="10" stroke-linecap="round" stroke-linejoin="round"/>
<path d="M497.783 71.2613C504.172 69.8043 510.77 69.2935 517.302 69.7625C518.8 87.3885 520.299 105.014 521.798 122.64C522.033 125.437 522.033 128.778 519.73 130.377C517.31 127.706 517.343 123.696 517.519 120.103C517.787 114.552 518.6 108.054 523.423 105.291C524.955 104.412 526.713 104.043 528.447 103.708C542.74 100.945 548.116 99.6722 562.677 99.9318C567.132 100.007 572.734 101.129 573.705 105.475C574.567 109.302 569.669 112.994 566.227 111.11C566.261 94.0034 565.315 76.8966 563.414 59.8986C569.861 59.1617 588.961 59.2203 595.4 60.0661C597.594 60.3591 601.379 59.907 601.638 62.1092C602.099 66.0698 602.032 66.4633 602.25 69.2266C603.774 88.678 603.506 105.634 603.271 123.963C603.196 130.009 603.531 136.247 606.127 141.707C607.517 144.637 609.652 147.359 612.616 148.665C615.58 149.971 619.449 149.527 621.525 147.041C623.853 144.261 623.3 140.158 622.622 136.591C622.036 133.501 620.495 129.616 617.355 129.808C615.162 129.942 613.646 132.312 613.654 134.506C613.663 136.708 614.76 138.734 615.823 140.66C616.292 141.506 616.836 142.418 617.749 142.762C620.026 143.607 621.584 140.426 621.852 138.014C622.731 130.311 622.639 122.498 621.584 114.811C626.759 115.816 636.154 112.366 640.407 115.49C641.806 116.52 642.685 118.085 643.522 119.609C646.428 124.901 645.984 130.193 648.89 135.477C648.906 123.779 648.923 112.09 648.94 100.392C648.94 98.3995 648.982 96.2726 650.079 94.6063C651.042 93.1326 652.674 92.2618 654.257 91.4998L655.295 90.3526C660.738 87.6899 667.001 87.4722 673.055 87.3047C676.832 87.1959 680.608 87.0954 684.384 86.9865C688.27 86.8777 692.415 86.6851 695.58 84.4327C698.452 82.3895 700.051 78.8811 700.319 75.3726C700.528 85.7389 701.676 106.17 700.411 116.461" stroke="#010101" stroke-width="3.5" stroke-miterlimit="10" stroke-linecap="round" stroke-linejoin="round"/>
</g>
<defs>
<clipPath id="clip0">
<rect width="974.94" height="173.313" fill="white" transform="translate(0.0600586 0.179504)"/>
</clipPath>
</defs>
</svg>
