<svg width="735" height="319" viewBox="0 0 735 319" fill="none" xmlns="http://www.w3.org/2000/svg">
<g clip-path="url(#clip0)">
<path d="M733.59 286.63C696.862 286.004 625.716 288.064 614.259 284.876C629.22 269.887 657.177 262.129 666.088 264.043C660.996 276.158 637.813 282.006 618.079 284.238C611.214 285.014 594.625 292.668 585.867 290.325C579.968 288.748 583.729 288.293 586.817 287.585C591.577 286.499 605.086 287.93 609.846 288.759C618.823 290.324 628.733 292.171 635.609 294.233C640.676 295.751 664.913 301.34 674.574 313.787C679.78 320.492 631.29 318.463 604.945 306.575C587.81 298.843 580.71 293.729 576.122 287.001C572.301 281.4 580.366 269.994 586.044 264.2C600.74 249.206 625.402 241.441 638.752 233.419C642.204 231.344 640.146 241.903 634.266 250.016C626.371 260.909 615.806 270.64 604.127 276.063C592.636 281.4 577.344 285.369 565.489 286.809C544.486 289.361 542.11 289.168 542.11 289.168C488.645 291.602 465.893 283.206 450.702 279.248C399.765 265.981 360.17 207.636 379.617 177.596C394.198 155.074 481.999 147.516 509.631 169.075C517.901 175.527 524.295 197.701 519.832 209.937C518.95 212.346 513.921 212.79 512.464 210.273C508.006 202.568 521.49 197.084 527.889 195.839C539.916 193.503 556.551 199.542 557.053 214.128C557.882 238.269 540.206 256.325 515.477 257.23C503.64 257.663 511.738 243.838 514.809 251.527C517.101 257.273 505.329 272.993 490.265 281.547C465.058 295.858 432.433 291.553 412.933 278.529C364.725 246.328 369.791 192.308 390.859 177.596C420.932 156.596 508.417 164.814 520.898 178.409C536.201 195.079 481.085 218.061 415.47 208.019C373.679 201.62 359.184 184.429 385.085 168.466C414.049 150.615 508.344 158.284 518.891 193.001C521.587 201.886 522.548 213.979 518.387 232.746C503.322 300.665 440.177 285.036 410.925 285.068C405.557 285.074 396.928 284.923 387.728 284.735L359.448 283.999C335.685 284.202 239.333 284.028 215.764 283.999C162.677 283.942 65.3978 288.565 54.4622 195.434C50.3936 160.786 62.5327 135.902 70.8655 121.254C89.0914 89.2188 110.13 73.6802 131.013 64.1818C165.64 48.4346 225.099 51.8347 254.34 69.7397C276.211 83.1296 277.659 103.142 237.331 114.783C165.64 135.477 70.118 113.489 96.3817 81.9146C114.608 60.002 177.571 40.0134 180.223 12.8276C181.696 -2.2976 165.877 -2.70198 167.645 13.4931C168.927 25.2146 190.986 36.0186 205.739 44.7844C257.987 75.8272 293.225 98.6537 307.805 134.263C318.417 160.175 328.413 218.614 279.554 267.566C249.481 297.697 188.079 315.288 110.962 282.174C85.4462 271.218 61.235 235.382 65.3978 224.959C70.9723 211 85.6634 236.092 64.1833 235.306C19.3028 233.662 -0.823479 189.042 1.60724 161.04C3.29227 141.634 19.8349 119.651 41.6589 123.894C53.2731 126.151 77.745 136.101 69.6529 150.086C67.0086 154.656 57.8812 153.845 56.2866 149.477C48.18 127.272 81.725 101.016 96.7111 89.2823C135.572 58.8614 189.397 59.5269 234.898 72.9331C255.455 78.9897 297.158 113.471 302.338 158.911C302.834 163.264 302.546 168.056 302.338 172.608C302.236 174.818 301.731 174.738 301.123 177.172C299.706 182.844 289.75 179.997 294.135 171.694C296.87 166.52 331.539 130.971 341.828 123.607C358.838 111.432 370.988 111.432 369.775 116.911C367.907 125.332 344.109 131.521 341.108 121.977C337.22 109.61 364.883 108.594 366.738 120.563C367.553 125.83 354.764 146.247 352.46 150.693C347.178 160.89 337.879 177.172 310.54 218.257C276.868 268.862 225.288 286.447 118.77 286.447C101.757 286.447 81.2472 286 52.7084 285.721" stroke="#010101" stroke-width="3" stroke-miterlimit="10" stroke-linecap="round" stroke-linejoin="round"/>
</g>
<defs>
<clipPath id="clip0">
<rect width="735" height="319" fill="white"/>
</clipPath>
</defs>
</svg>
